<svg width="24" height="24" viewBox="0 0 24 24" fill="none" xmlns="http://www.w3.org/2000/svg">
<g clip-path="url(#clip0_2276_1293)">
<rect width="24" height="24" fill="#362F78"/>
<path d="M8.31727 18.0036C7.86791 18.0036 7.47373 17.7038 7.35364 17.2708L4.63943 7.48436C4.48366 6.92271 4.90608 6.36719 5.48893 6.36719V6.36719C5.89296 6.36719 6.24528 6.64185 6.34385 7.03367L8.42999 15.3259C8.43777 15.3569 8.46558 15.3786 8.49747 15.3786V15.3786C8.52911 15.3786 8.55677 15.3572 8.56478 15.3266L10.7137 7.11405C10.8288 6.67407 11.2263 6.36719 11.6811 6.36719H11.9666C12.4214 6.36719 12.819 6.67414 12.934 7.11419L15.0831 15.3323C15.0911 15.3629 15.1187 15.3842 15.1503 15.3842V15.3842C15.1822 15.3842 15.21 15.3625 15.2178 15.3316L17.2982 7.03597C17.3968 6.64286 17.7502 6.36719 18.1554 6.36719V6.36719C18.7399 6.36719 19.1634 6.92439 19.007 7.48753L16.2887 17.2712C16.1685 17.704 15.7744 18.0036 15.3252 18.0036H15.076C14.6279 18.0036 14.2345 17.7054 14.1133 17.274L11.8817 9.3314C11.8744 9.30552 11.8508 9.28764 11.8239 9.28764V9.28764C11.797 9.28764 11.7734 9.30552 11.7662 9.3314L9.53456 17.274C9.41335 17.7054 9.01994 18.0036 8.57183 18.0036H8.31727Z" fill="white"/>
</g>
<defs>
<clipPath id="clip0_2276_1293">
<rect width="24" height="24" rx="1" fill="white"/>
</clipPath>
</defs>
</svg>
