<svg width="132" height="52" viewBox="0 0 132 52" fill="none" xmlns="http://www.w3.org/2000/svg">
<g clip-path="url(#clip0_2273_1287)">
<path d="M29.8779 31.4089L33.6409 31.3559V33.5289C33.15 33.4533 32.6537 33.4178 32.1569 33.4229C31.5919 33.4229 30.9559 33.4579 30.2489 33.5289C30.2489 36.2489 28.9419 39.0059 26.3269 41.7969C23.7119 44.5879 20.5499 46.8499 16.8399 48.5809C13.1649 50.3479 9.73794 51.2309 6.55794 51.2309C4.89794 51.2309 3.53694 50.8069 2.47694 49.9589C1.45194 49.1109 0.939941 47.9979 0.939941 46.6199C0.939941 44.5699 2.29994 42.4329 5.02094 40.2069C7.74094 37.9809 10.9209 36.1439 14.5609 34.6949C18.2009 33.2459 21.4859 32.3979 24.4189 32.1509C24.0659 31.6209 23.5179 31.1609 22.7759 30.7729C22.0339 30.3839 20.5149 29.7829 18.2179 28.9709C15.9209 28.1229 14.2959 27.2039 13.3419 26.2149C12.3879 25.1899 11.9109 23.7589 11.9109 21.9219C11.9109 20.0849 12.9009 17.9819 14.8789 15.6149C16.8541 13.2506 19.2205 11.2428 21.8749 9.67894C24.5949 8.05394 26.9809 7.24094 29.0299 7.24094C29.9489 7.24094 30.7079 7.57694 31.3089 8.24794C31.9089 8.88394 32.2099 9.67894 32.2099 10.6329C32.2099 12.1879 31.2739 14.1489 29.4009 16.5159C27.5279 18.8479 25.4439 20.6319 23.1469 21.8689L21.8749 20.0669C23.2529 19.3599 24.4549 18.2649 25.4789 16.7809C26.5389 15.2609 27.0689 13.9539 27.0689 12.8589C27.0689 11.7639 26.4859 11.2159 25.3199 11.2159C23.6599 11.2159 21.7509 12.2579 19.5959 14.3429C17.4759 16.3929 16.4159 18.3179 16.4159 20.1199C16.4159 21.3569 16.7339 22.3279 17.3699 23.0349C18.0059 23.7419 19.6139 24.6249 22.1929 25.6849C24.7729 26.7099 26.6099 27.6279 27.7049 28.4409C28.7999 29.2179 29.5249 30.2079 29.8779 31.4089ZM6.23994 45.2419C6.23994 46.9379 7.61794 47.7859 10.3739 47.7859C11.8939 47.7859 13.8539 47.2209 16.2569 46.0899C18.694 44.9953 20.8777 43.4072 22.6699 41.4259C24.5429 39.4469 25.4789 37.4159 25.4789 35.3309C25.4789 35.0839 25.4259 34.7129 25.3199 34.2179C20.4799 34.6779 16.0799 36.0379 12.1229 38.2989C8.20094 40.5599 6.23994 42.8749 6.23994 45.2419ZM48.1599 35.0659L49.3269 36.3909C48.4429 37.7689 47.3649 38.8469 46.0939 39.6239C44.8569 40.4009 43.6019 40.7899 42.3299 40.7899C41.0589 40.7899 40.0509 40.4369 39.3099 39.7299C38.5679 38.9879 38.1959 37.9809 38.1959 36.7089C38.1959 33.7409 39.3099 29.6419 41.5359 24.4129C39.7046 24.7024 37.8973 25.1276 36.1289 25.6849L35.7589 23.6179L35.7059 23.5649C37.4719 22.8229 39.7859 22.2219 42.6479 21.7629C42.9309 21.2329 43.5679 19.9429 44.5559 17.8939C46.5359 13.8309 47.9489 11.1979 48.7959 9.99694L51.0759 10.8979C50.7219 11.6749 50.1039 12.9829 49.2209 14.8199C48.2207 16.864 47.2314 18.9133 46.2529 20.9679C47.8429 20.8619 49.0969 20.8089 50.0159 20.8089C50.9339 20.8089 51.6409 20.9499 52.1359 21.2329V23.5119C51.6409 23.4059 50.9159 23.3529 49.9619 23.3529C49.0439 23.3529 47.3829 23.5119 44.9799 23.8299C42.8959 28.4939 41.8529 31.8859 41.8529 34.0059C41.8529 34.8189 42.1009 35.4899 42.5949 36.0199C43.1249 36.5499 43.8149 36.8149 44.6629 36.8149C45.5459 36.8149 46.7109 36.2319 48.1599 35.0659ZM75.9899 35.6489L77.2089 36.5499C76.7139 37.6099 75.7949 38.6169 74.4529 39.5709C73.1449 40.5249 71.9439 41.0019 70.8489 41.0019C68.7639 41.0019 67.7219 39.9069 67.7219 37.7159C67.7219 36.6909 67.9869 35.4719 68.5169 34.0589L66.5559 36.0729C64.6479 38.0159 62.9869 39.3229 61.5739 39.9949C60.1959 40.6659 58.8349 41.0019 57.4929 41.0019C56.1499 41.0019 55.1249 40.6309 54.4189 39.8889C53.7469 39.1119 53.4119 38.0519 53.4119 36.7089C53.4119 34.2359 54.3659 31.7979 56.2739 29.3949C58.1819 26.9569 60.6199 24.9779 63.5879 23.4589C66.5559 21.9389 69.5239 21.1619 72.4919 21.1269L72.5979 22.8759L70.3719 23.3529C67.1559 24.0599 64.3119 25.4729 61.8389 27.5929C59.4009 29.7129 58.1819 31.8329 58.1819 33.9529C58.1819 36.0379 59.0299 37.0799 60.7259 37.0799C62.3159 37.0799 64.2759 35.9669 66.6089 33.7409C68.9409 31.5149 70.8839 28.9009 72.4389 25.8969L74.6649 27.2219C72.4739 31.6389 71.3789 34.4479 71.3789 35.6489C71.3789 36.1439 71.5379 36.5679 71.8559 36.9209C72.2089 37.2389 72.5449 37.3979 72.8629 37.3979C73.2159 37.3979 73.4459 37.3799 73.5519 37.3449L73.8699 37.2389C73.9759 37.1689 74.0999 37.0799 74.2399 36.9739C74.4169 36.8679 74.5589 36.7619 74.6649 36.6559L75.3009 36.1789C75.5829 35.9669 75.8129 35.7899 75.9899 35.6489ZM87.4239 26.4269C89.1199 24.6959 90.6039 23.5119 91.8759 22.8759C93.1839 22.2049 94.4029 21.8689 95.5329 21.8689C96.6989 21.8689 97.6529 22.2749 98.3949 23.0879C99.1729 23.8649 99.5609 24.8899 99.5609 26.1619C99.5609 29.4479 98.1829 32.9109 95.4269 36.5499C92.6709 40.1539 89.7029 41.9559 86.5229 41.9559C85.5956 41.9612 84.6766 41.781 83.8199 41.4259L85.0919 39.0939C85.6579 39.2349 86.0989 39.3059 86.4169 39.3059C88.5729 39.3059 90.5339 38.1049 92.2999 35.7019C94.0669 33.2989 94.9499 30.9319 94.9499 28.5999C94.9499 27.8579 94.7029 27.2569 94.2079 26.7979C93.7489 26.3029 93.1479 26.0559 92.4059 26.0559C90.7809 26.0559 88.8729 27.3629 86.6819 29.9779C84.5269 32.5929 82.6369 36.0019 81.0119 40.2069L77.7779 38.8819C78.8379 33.4759 80.9579 26.8859 84.1379 19.1129C87.3179 11.3399 89.9679 5.84494 92.0879 2.62994L94.7909 3.58394C92.4589 7.92994 89.9679 13.3179 87.3179 19.7489C84.7039 26.1789 83.1669 30.5429 82.7079 32.8399C84.1559 30.2959 85.7279 28.1579 87.4239 26.4269ZM109.19 35.9139L110.303 36.8149C109.101 38.6879 108.059 40.0479 107.176 40.8959C106.328 41.7089 105.374 42.1149 104.314 42.1149C103.254 42.1149 102.388 41.6909 101.717 40.8429C101.045 39.9949 100.71 38.9349 100.71 37.6629C100.71 35.1899 102.335 29.8719 105.586 21.7099C108.836 13.5129 112.175 6.30494 115.603 0.0859375L117.935 1.35794C114.547 7.91066 111.418 14.5938 108.554 21.3919C105.762 27.9989 104.367 32.7519 104.367 35.6489C104.367 37.3089 104.985 38.1399 106.222 38.1399C107.211 38.1399 108.2 37.3979 109.19 35.9139ZM130.415 25.2609C131.334 26.7809 131.793 28.4589 131.793 30.2959C131.793 33.1579 130.804 35.7199 128.825 37.9809C126.847 40.2069 124.515 41.3199 121.829 41.3199C119.78 41.3199 118.172 40.7369 117.006 39.5709C115.876 38.3699 115.31 36.7269 115.31 34.6419C115.31 31.2849 116.618 28.2819 119.232 25.6319C121.847 22.9469 124.78 21.6039 128.03 21.6039C128.631 21.6039 129.055 21.6219 129.302 21.6569L129.461 23.4059C126.635 23.4059 124.285 24.2189 122.412 25.8439C120.54 27.4689 119.603 29.5539 119.603 32.0979C119.603 33.6179 119.974 34.8539 120.716 35.8079C121.458 36.7269 122.536 37.1859 123.949 37.1859C125.398 37.1859 126.546 36.5499 127.394 35.2779C128.242 34.0059 128.666 32.5219 128.666 30.8259C128.666 29.0949 128.331 27.5219 127.659 26.1089L130.415 25.2609Z" fill="#1E293B"/>
</g>
<defs>
<clipPath id="clip0_2273_1287">
<rect width="132" height="52" fill="white"/>
</clipPath>
</defs>
</svg>
